#!OML:ASF X:\für Bonn\!DataBase\2005_08_11_Bastian_Final\c3d\Bastian.ASF
:FULLY-SPECIFIED
:DEGREES
112
root -22.0939 17.588 0.00731176 121.275 -80.4448 -126.762
lowerback 5.04391 5.9566 7.11478
upperback 3.07426 8.14288 -4.13287
thorax 2.01654 4.26662 -8.47174
lowerneck -12.6625 -9.06394 2.00479
upperneck -4.64472 -12.6568 8.27211
head 1.07774 -6.33483 1.64806
rclavicle -2.72335e-014 -1.59028e-015
rhumerus 59.3455 0.232001 -27.7971
rradius 22.0408
rwrist -19.6358
rhand 0.660347 -12.7875
rfingers 7.12502
rthumb 26.2227 -40.9958
lclavicle -2.72335e-014 -1.59028e-015
lhumerus -29.0878 -20.0695 84.8171
lradius 15.7048
lwrist 16.9751
lhand -9.97642 -2.32737
lfingers 7.12502
lthumb 16.0063 27.0314
rfemur 1.0249 2.4971 25.2666
rtibia 27.492
rfoot -12.6566 -12.8763
rtoes -13.8513
lfemur 1.18703 4.13468 -13.0581
ltibia 25.4588
lfoot -13.1275 -3.35968
ltoes -17.0705
113
root -22.0922 17.5875 0.0128558 121.07 -80.4484 -126.544
lowerback 5.0663 5.9497 7.17536
upperback 3.05906 8.1376 -4.182
thorax 2.00402 4.2654 -8.56194
lowerneck -12.6123 -9.09554 1.95896
upperneck -4.63343 -12.6934 8.35411
head 1.08392 -6.35176 1.68066
rclavicle -8.94531e-015 1.59028e-015
rhumerus 59.2483 0.123071 -28.0574
rradius 22.0777
rwrist -19.4856
rhand 0.0754585 -12.6805
rfingers 7.12502
rthumb 25.6626 -40.9708
lclavicle -8.94531e-015 1.59028e-015
lhumerus -29.1998 -20.0162 84.7627
lradius 15.5736
lwrist 16.9598
lhand -9.99429 -2.17823
lfingers 7.12502
lthumb 15.9891 27.1819
rfemur 0.992415 2.42929 25.2497
rtibia 27.4995
rfoot -12.6512 -12.8375
rtoes -13.8239
lfemur 1.16242 4.10594 -13.0662
ltibia 25.4651
lfoot -13.126 -3.35293
ltoes -17.0526
114
root -22.0892 17.5875 0.0185252 121.092 -80.4774 -126.575
lowerback 5.10882 5.9381 7.17778
upperback 3.05815 8.12375 -4.22163
thorax 1.98334 4.2581 -8.6112
lowerneck -12.5969 -9.12079 1.89026
upperneck -4.5651 -12.7223 8.41436
head 1.11439 -6.36121 1.70725
rclavicle -4.57205e-015 3.49861e-014
rhumerus 59.2048 0.0725953 -28.1838
rradius 22.1018
rwrist -19.3769
rhand -0.545471 -12.5054
rfingers 7.12502
rthumb 25.0678 -40.8802
lclavicle -4.57205e-015 3.49861e-014
lhumerus -29.2568 -19.7254 84.6514
lradius 15.4081
lwrist 16.7316
lhand -9.98124 -2.03406
lfingers 7.12502
lthumb 16.0017 27.3251
rfemur 0.977179 2.4153 25.1955
rtibia 27.5177
rfoot -12.6619 -12.8222
rtoes -13.8223
lfemur 1.15945 4.05563 -13.1262
ltibia 25.462
lfoot -13.1295 -3.30329
ltoes -16.9516
115
root -22.0852 17.5874 0.0244941 121.061 -80.4595 -126.529
lowerback 5.1467 5.92544 7.24633
upperback 3.04271 8.11203 -4.25898
thorax 1.9599 4.25309 -8.69547
lowerneck -12.5517 -9.1324 1.82511
upperneck -4.52956 -12.7307 8.48221
head 1.12891 -6.36262 1.73921
rclavicle 1.0138e-014 -6.04305e-014
rhumerus 59.1627 0.0312473 -28.3095
rradius 22.1145
rwrist -19.2231
rhand -1.15269 -12.2916
rfingers 7.12502
rthumb 24.4858 -40.7463
lclavicle 1.0138e-014 -6.04305e-014
lhumerus -29.3086 -19.2871 84.4589
lradius 15.2882
lwrist 16.3409
lhand -9.88694 -1.87031
lfingers 7.12502
lthumb 16.0925 27.4815
rfemur 0.931876 2.37784 25.1857
rtibia 27.5315
rfoot -12.627 -12.8022
rtoes -13.9542
lfemur 1.12585 4.05762 -13.1265
ltibia 25.4654
lfoot -13.1103 -3.31101
ltoes -16.7706
116
root -22.0811 17.5875 0.029992 121.261 -80.4371 -126.718
lowerback 5.17519 5.91317 7.29285
upperback 3.0301 8.09911 -4.30306
thorax 1.94213 4.24731 -8.77335
lowerneck -12.5197 -9.13993 1.77209
upperneck -4.45149 -12.7383 8.54464
head 1.15832 -6.36162 1.76584
rclavicle -1.86858e-014 -3.18055e-014
rhumerus 59.1428 0.0122499 -28.4867
rradius 22.1595
rwrist -19.0864
rhand -1.81255 -12.0696
rfingers 7.12502
rthumb 23.8532 -40.6085
lclavicle -1.86858e-014 -3.18055e-014
lhumerus -29.3311 -18.8353 84.2557
lradius 15.1302
lwrist 15.991
lhand -9.81266 -1.71556
lfingers 7.12502
lthumb 16.164 27.6305
rfemur 0.876842 2.36835 25.1589
rtibia 27.5521
rfoot -12.5951 -12.7656
rtoes -14.0214
lfemur 1.10326 4.03993 -13.16
ltibia 25.4634
lfoot -13.1018 -3.24368
ltoes -16.7629
